<svg width="15" height="15" viewBox="0 0 15 15" fill="none" xmlns="http://www.w3.org/2000/svg">
<path d="M14.8611 14.2008L10.7151 10.0524C11.6314 8.98822 12.1869 7.60541 12.1869 6.09369C12.1869 2.73274 9.4541 0 6.09345 0C2.73264 0.000110133 0 2.73302 0 6.09369C0 9.45463 2.73281 12.1874 6.09345 12.1874C7.60517 12.1874 8.98793 11.6318 10.052 10.7155L14.198 14.8617C14.2917 14.9531 14.4111 15 14.5306 15C14.6502 15 14.7696 14.9531 14.8611 14.8617C15.0463 14.6788 15.0463 14.3837 14.8611 14.2008L14.8611 14.2008ZM6.09308 11.2501C3.25021 11.2501 0.936827 8.93676 0.936827 6.09369C0.936827 3.25042 3.25012 0.93723 6.09308 0.93723C8.93596 0.93723 11.2493 3.25062 11.2493 6.09369C11.2495 8.93639 8.93616 11.2501 6.09308 11.2501Z" fill="white"/>
</svg>
